<svg width="56" height="56" viewBox="0 0 56 56" fill="none" xmlns="http://www.w3.org/2000/svg">
<rect width="56" height="56" rx="15" fill="#F5F5F5"/>
<path d="M22.032 20.44C24.016 20.44 25.528 21.168 26.568 22.624C27.624 24.08 28.152 26.176 28.152 28.912C28.152 31.632 27.624 33.728 26.568 35.2C25.528 36.672 24.016 37.408 22.032 37.408C20.048 37.408 18.528 36.672 17.472 35.2C16.432 33.728 15.912 31.632 15.912 28.912C15.912 26.176 16.432 24.08 17.472 22.624C18.528 21.168 20.048 20.44 22.032 20.44ZM22.032 23.248C21.488 23.248 21.056 23.424 20.736 23.776C20.416 24.128 20.176 24.712 20.016 25.528C19.872 26.344 19.8 27.472 19.8 28.912C19.8 30.352 19.872 31.488 20.016 32.32C20.176 33.136 20.416 33.72 20.736 34.072C21.056 34.424 21.488 34.6 22.032 34.6C22.576 34.6 23.008 34.432 23.328 34.096C23.648 33.744 23.88 33.16 24.024 32.344C24.184 31.512 24.264 30.368 24.264 28.912C24.264 27.456 24.184 26.32 24.024 25.504C23.88 24.672 23.648 24.088 23.328 23.752C23.008 23.416 22.576 23.248 22.032 23.248ZM37.668 20.776V37H33.948V24.472L30.468 26.608L28.812 24.088L34.284 20.776H37.668Z" fill="#004680"/>
</svg>
