<svg width="56" height="56" viewBox="0 0 56 56" fill="none" xmlns="http://www.w3.org/2000/svg">
<rect width="56" height="56" rx="15" fill="#F5F5F5"/>
<path d="M22.032 20.44C24.016 20.44 25.528 21.168 26.568 22.624C27.624 24.08 28.152 26.176 28.152 28.912C28.152 31.632 27.624 33.728 26.568 35.2C25.528 36.672 24.016 37.408 22.032 37.408C20.048 37.408 18.528 36.672 17.472 35.2C16.432 33.728 15.912 31.632 15.912 28.912C15.912 26.176 16.432 24.08 17.472 22.624C18.528 21.168 20.048 20.44 22.032 20.44ZM22.032 23.248C21.488 23.248 21.056 23.424 20.736 23.776C20.416 24.128 20.176 24.712 20.016 25.528C19.872 26.344 19.8 27.472 19.8 28.912C19.8 30.352 19.872 31.488 20.016 32.32C20.176 33.136 20.416 33.72 20.736 34.072C21.056 34.424 21.488 34.6 22.032 34.6C22.576 34.6 23.008 34.432 23.328 34.096C23.648 33.744 23.88 33.16 24.024 32.344C24.184 31.512 24.264 30.368 24.264 28.912C24.264 27.456 24.184 26.32 24.024 25.504C23.88 24.672 23.648 24.088 23.328 23.752C23.008 23.416 22.576 23.248 22.032 23.248ZM34.4933 20.44C35.6613 20.44 36.6613 20.648 37.4933 21.064C38.3413 21.48 38.9813 22.04 39.4133 22.744C39.8613 23.448 40.0853 24.224 40.0853 25.072C40.0853 25.936 39.9093 26.76 39.5573 27.544C39.2053 28.328 38.5813 29.232 37.6853 30.256C36.7893 31.264 35.4853 32.544 33.7733 34.096H40.4213L40.0373 37H29.4773V34.312C31.4453 32.376 32.8773 30.92 33.7733 29.944C34.6693 28.952 35.2933 28.128 35.6453 27.472C36.0133 26.816 36.1973 26.144 36.1973 25.456C36.1973 24.8 36.0053 24.288 35.6213 23.92C35.2533 23.536 34.7493 23.344 34.1093 23.344C33.5333 23.344 33.0213 23.48 32.5733 23.752C32.1253 24.008 31.6533 24.432 31.1573 25.024L28.9253 23.248C29.5973 22.368 30.3973 21.68 31.3253 21.184C32.2693 20.688 33.3253 20.44 34.4933 20.44Z" fill="#004680"/>
</svg>
