<svg width="56" height="56" viewBox="0 0 56 56" fill="none" xmlns="http://www.w3.org/2000/svg">
<rect width="56" height="56" rx="15" fill="#F5F5F5"/>
<path d="M22.032 20.44C24.016 20.44 25.528 21.168 26.568 22.624C27.624 24.08 28.152 26.176 28.152 28.912C28.152 31.632 27.624 33.728 26.568 35.2C25.528 36.672 24.016 37.408 22.032 37.408C20.048 37.408 18.528 36.672 17.472 35.2C16.432 33.728 15.912 31.632 15.912 28.912C15.912 26.176 16.432 24.08 17.472 22.624C18.528 21.168 20.048 20.44 22.032 20.44ZM22.032 23.248C21.488 23.248 21.056 23.424 20.736 23.776C20.416 24.128 20.176 24.712 20.016 25.528C19.872 26.344 19.8 27.472 19.8 28.912C19.8 30.352 19.872 31.488 20.016 32.32C20.176 33.136 20.416 33.72 20.736 34.072C21.056 34.424 21.488 34.6 22.032 34.6C22.576 34.6 23.008 34.432 23.328 34.096C23.648 33.744 23.88 33.16 24.024 32.344C24.184 31.512 24.264 30.368 24.264 28.912C24.264 27.456 24.184 26.32 24.024 25.504C23.88 24.672 23.648 24.088 23.328 23.752C23.008 23.416 22.576 23.248 22.032 23.248ZM34.5407 20.44C35.6767 20.44 36.6447 20.624 37.4447 20.992C38.2607 21.36 38.8767 21.856 39.2927 22.48C39.7247 23.104 39.9407 23.8 39.9407 24.568C39.9407 25.544 39.6607 26.36 39.1007 27.016C38.5567 27.672 37.7807 28.144 36.7727 28.432C37.8607 28.544 38.7487 28.936 39.4367 29.608C40.1247 30.264 40.4687 31.2 40.4687 32.416C40.4687 33.328 40.2287 34.168 39.7487 34.936C39.2687 35.688 38.5567 36.288 37.6127 36.736C36.6847 37.184 35.5727 37.408 34.2767 37.408C31.9087 37.408 30.0527 36.592 28.7087 34.96L30.7487 32.968C31.2927 33.512 31.8207 33.912 32.3327 34.168C32.8607 34.408 33.4367 34.528 34.0607 34.528C34.8127 34.528 35.4207 34.32 35.8847 33.904C36.3487 33.488 36.5807 32.912 36.5807 32.176C36.5807 31.344 36.3567 30.752 35.9087 30.4C35.4767 30.032 34.8207 29.848 33.9407 29.848H32.5967L33.0047 27.232H33.9407C34.6607 27.232 35.2287 27.048 35.6447 26.68C36.0607 26.312 36.2687 25.792 36.2687 25.12C36.2687 24.528 36.0767 24.072 35.6927 23.752C35.3087 23.416 34.7807 23.248 34.1087 23.248C32.9727 23.248 31.9167 23.72 30.9407 24.664L29.0687 22.624C30.6047 21.168 32.4287 20.44 34.5407 20.44Z" fill="#004680"/>
</svg>
