<svg width="96" height="96" viewBox="0 0 96 96" fill="none" xmlns="http://www.w3.org/2000/svg">
<rect width="96" height="96" rx="35" fill="#11BDCF"/>
<g clip-path="url(#clip0_1_381)">
<path d="M48 47.1C43.28 42.7 36.96 40 30 40V62C36.96 62 43.28 64.7 48 69.1C52.72 64.72 59.04 62 66 62V40C59.04 40 52.72 42.7 48 47.1ZM48 40C51.32 40 54 37.32 54 34C54 30.68 51.32 28 48 28C44.68 28 42 30.68 42 34C42 37.32 44.68 40 48 40Z" fill="white"/>
</g>
<defs>
<clipPath id="clip0_1_381">
<rect width="48" height="48" fill="white" transform="translate(24 24)"/>
</clipPath>
</defs>
</svg>
