<svg width="116" height="143" viewBox="0 0 116 143" fill="none" xmlns="http://www.w3.org/2000/svg">
<path fill-rule="evenodd" clip-rule="evenodd" d="M17.8389 27.1326C22.5887 17.6265 28.4111 8.81427 34.5644 0.237692C35.2677 0.418424 34.6499 0.856407 34.9006 1.1329C35.2991 1.31692 35.7427 0.356459 36.2554 1.21083C36.7267 1.99573 36.4474 2.58581 36.1155 3.19466C34.3687 6.3995 31.846 9.10626 30.3236 12.4862C29.8025 13.6419 29.5748 15.0573 28.29 15.9577C27.499 16.5116 27.6853 17.9124 26.9864 18.8348C26.5488 19.4127 26.3057 20.2211 25.8189 20.8731C23.8792 23.4691 22.7614 26.4054 22.4427 29.6328C22.3854 30.2139 22.1432 30.7402 21.6043 30.758C20.1349 30.8073 18.6755 31.4162 17.2352 30.1304C16.1898 29.1967 16.0926 28.3512 16.3884 27.2255C17.1015 24.5136 18.5159 22.1204 19.904 19.7291C21.5278 16.9322 23.3717 14.2672 25.0917 11.5323C27.4051 7.85381 29.995 4.37999 32.4515 0.808994C32.6853 0.469593 32.9092 -0.232213 33.4218 0.0766755C33.8077 0.309046 33.4012 0.864857 33.181 1.20285C31.7924 3.33409 30.3057 5.39303 28.7829 7.43413C27.3234 9.39027 26.1001 11.5332 24.8814 13.656C22.9121 17.0876 20.7424 20.4042 18.9604 23.9428C18.4525 24.9516 17.9497 25.9735 17.8389 27.1326Z" fill="#004680"/>
<path fill-rule="evenodd" clip-rule="evenodd" d="M10.3321 68.1573C9.43975 68.8746 8.79428 67.7582 8.51215 67.5315C7.74884 66.9184 6.55225 67.5507 6.25416 66.825C5.80304 65.726 4.8299 64.7961 5.23361 63.3239C6.01381 60.4764 7.19632 57.7959 8.29574 55.0774C9.09284 53.1067 9.85238 51.1168 11.0166 49.3151C11.5358 48.5119 12.1324 47.8035 13.0136 47.3998C13.9172 46.9853 14.7106 46.9557 15.5809 47.7007C16.225 48.2518 17.0554 48.6137 17.6516 49.2615C18.2191 49.8774 18.6698 50.522 18.0004 51.3613C17.5305 51.95 17.6154 52.7218 17.3788 53.393C16.4278 56.0904 16.0658 58.9953 14.5402 61.4894C13.4088 63.3394 12.5728 65.3303 11.7006 67.3057C11.4508 67.8714 11.2091 68.5549 10.3321 68.1573Z" fill="#004680"/>
<path fill-rule="evenodd" clip-rule="evenodd" d="M66.5943 47.9551C66.3844 48.4283 66.2492 48.7325 66.1187 49.0263C66.2736 49.2287 66.4168 49.108 66.5708 49.0648C66.8867 48.9756 66.9952 48.3705 67.3777 48.6123C67.8406 48.9047 67.2454 49.2549 67.281 49.6014C67.7876 49.7192 67.9223 49.0935 68.3354 49.0761C68.9757 50.061 68.6396 50.8538 68.0434 51.7373C66.4234 54.138 65.0193 56.6612 64.0739 59.4224C63.7171 60.4651 62.3815 60.9744 62.3557 62.1846C62.3229 63.7197 61.6065 65.0524 60.8014 66.1499C59.411 68.0455 59.1138 70.2758 58.2862 72.3361C58.0533 72.9159 58.3726 73.6299 57.7999 74.105C57.6149 74.2585 57.3243 74.6082 57.2037 74.3134C56.7896 73.306 55.9827 73.7914 55.3147 73.6243C54.0749 73.314 53.8308 72.0981 53.7097 71.0288C53.5191 69.3435 54.0054 67.7136 54.6894 66.2114C57.3069 60.4594 60.3512 54.9412 64.1175 49.8511C64.6912 49.0756 65.2057 48.1025 66.5943 47.9551Z" fill="#004680"/>
<path fill-rule="evenodd" clip-rule="evenodd" d="M49.2496 25.1171C48.9623 26.0123 48.6849 26.9493 48.3619 27.8708C46.3166 33.7125 43.6633 39.2804 40.7894 44.7522C39.6877 46.8496 38.4178 48.8626 37.5841 51.1008C37.3457 51.7421 36.9171 52.2481 36.1524 51.566C35.9721 51.405 35.7045 51.3323 35.466 51.2478C33.8798 50.6863 33.2602 49.4705 33.7578 47.8204C34.2676 46.1276 35.2107 44.6452 36.1247 43.1589C39.9919 36.8727 43.6295 30.4682 46.4062 23.6088C46.7583 22.7394 46.8602 22.7404 47.4775 23.4023C47.5446 23.4741 47.6807 23.5262 47.7784 23.5173C48.9299 23.4145 49.0346 24.2585 49.2496 25.1171Z" fill="#004680"/>
<path fill-rule="evenodd" clip-rule="evenodd" d="M10.4728 90.7256C9.41844 93.3202 7.69468 95.3059 6.69009 97.6554C5.6747 100.03 4.44525 102.32 3.80775 104.855C4.73207 102.822 5.65123 100.787 6.58165 98.7576C7.65008 96.4288 9.00487 94.2651 10.3367 92.0813C11.0051 90.9857 11.7558 91.0415 12.5083 91.6447C13.2429 92.2344 13.3955 93.2272 12.7036 93.9192C11.2938 95.3289 10.501 97.1301 9.98599 98.8994C9.08937 101.981 7.51301 104.837 7.03794 108.055C6.92856 108.796 6.39199 109.429 6.28168 110.255C6.15775 111.185 6.10939 111.981 6.57038 112.847C6.83749 113.35 7.49658 114.012 6.91119 114.573C6.43237 115.033 5.73103 115.37 4.93299 114.951C4.62833 114.792 4.18424 114.896 3.80353 114.883C1.57747 114.808 0.263517 113.358 0.595408 111.112C1.04043 108.101 2.1713 105.285 3.36555 102.504C4.93017 98.86 6.63141 95.2861 8.94713 92.0405C9.28888 91.5617 9.57523 91.0326 10.4728 90.7256Z" fill="#004680"/>
<path fill-rule="evenodd" clip-rule="evenodd" d="M71.1682 119.121C68.1535 119.115 67.2451 117.795 68.2652 115.296C69.0628 113.341 70.4195 111.73 71.7292 110.116C74.7866 106.349 77.9689 102.69 81.3568 99.2094C82.1854 98.3578 83.1914 98.0532 84.2242 97.7372C84.5847 97.6274 85.3883 97.4105 85.3578 97.7246C85.294 98.3668 85.9385 98.9503 85.3583 99.6375C82.767 102.706 80.4546 105.991 78.0586 109.212C77.0024 110.632 75.8335 111.971 74.8162 113.417C74.1285 114.395 73.4253 115.452 74.1228 116.77C74.2064 116.927 74.1632 117.339 74.089 117.364C72.8986 117.761 72.1789 119.029 71.1682 119.121Z" fill="#004680"/>
<path fill-rule="evenodd" clip-rule="evenodd" d="M101.985 50.8564C103.533 49.1171 104.497 47.0018 106.023 45.2734C106.473 44.7645 107.012 44.3228 107.396 43.7707C108.031 42.8586 108.684 43.5538 109.104 43.8411C109.511 44.1195 109.702 44.7664 109.265 45.3785C107.481 47.8783 106.045 50.6146 104.839 53.3993C103.98 55.3845 102.554 57.1233 102.257 59.4334C102.143 60.308 101.546 61.3172 101.214 62.2965C100.771 63.6057 99.8611 62.5218 99.1588 62.4739C99.048 62.4664 98.9499 62.1406 98.8485 62.1425C98.4162 62.1486 98.1617 63.2494 97.6552 62.4857C96.968 61.4492 96.2342 60.4713 96.7149 58.9391C97.4787 56.5069 98.6518 54.3128 99.9357 52.1595C101.676 49.2401 103.282 46.2179 105.759 43.8087C105.942 43.6313 106.109 43.4365 106.305 43.274C106.506 43.1064 106.777 42.9633 106.993 43.1694C107.267 43.4318 107.122 43.7491 106.882 43.9463C104.781 45.6663 103.734 48.1472 102.262 50.3198C102.151 50.485 102.077 50.677 101.985 50.8564Z" fill="#004680"/>
<path fill-rule="evenodd" clip-rule="evenodd" d="M50.1663 94.0633C50.8141 93.4521 51.5455 92.9066 52.0877 92.2133C52.7205 91.4044 53.4251 91.227 54.3166 91.5795C54.8466 91.7899 54.7339 92.3457 54.6827 92.7001C54.5508 93.6122 54.011 94.3149 53.1294 94.6398C52.9186 94.7173 52.6012 94.5576 52.6017 94.9388C52.6064 96.8011 50.9732 97.7925 50.2714 99.2844C50.056 99.7416 49.6546 100.176 49.372 100.645C48.5467 102.014 47.8717 103.502 46.1226 104.026C45.7151 104.148 45.0692 104.513 45.2893 105.132C45.9611 107.021 44.6382 108.282 43.8876 109.682C42.6539 111.983 41.0888 114.096 39.9448 116.454C39.8157 116.719 39.7359 117.097 39.365 117.005C38.9017 116.89 39.5157 116.478 39.1942 116.236C38.6168 116.544 38.1098 117.374 37.3047 116.394C37.0174 116.045 36.5954 116.636 36.3888 117.007C36.2316 117.289 36.0588 117.555 35.7044 117.347C35.2758 117.096 35.6452 116.834 35.7584 116.603C37.8201 112.401 40.3668 108.494 43.0097 104.644C45.3372 101.254 47.6642 97.8634 49.9912 94.4741C50.0489 94.3379 50.1076 94.2009 50.1663 94.0633Z" fill="#004680"/>
<path fill-rule="evenodd" clip-rule="evenodd" d="M72.701 79.1511C74.128 76.9429 75.5659 74.7375 77.154 72.6325C75.3425 73.9911 73.1587 77.1438 72.701 79.1511ZM75.4933 82.5022C75.0492 82.6317 76.1815 81.0882 74.9713 82.036C74.9389 82.0614 74.875 82.1003 74.8605 82.0891C74.0629 81.4699 73.3606 81.5046 72.6307 82.2613C72.4391 82.4599 70.9529 80.7944 70.921 80.3024C70.8731 79.5597 71.0609 78.8565 71.3876 78.2064C73.2315 74.5344 75.8256 71.4836 79.1032 69.0148C80.7087 67.8051 82.393 67.937 84.0741 68.8378C84.9768 69.3218 84.9726 69.9035 84.222 70.6278C83.4319 71.3897 82.6803 72.1976 81.9729 73.0369C81.1565 74.0054 80.473 75.0686 79.5745 75.9902C78.3944 77.1999 77.9879 78.9157 77.1297 80.3521C76.6551 81.145 76.2373 81.9496 75.4933 82.5022Z" fill="#004680"/>
<path fill-rule="evenodd" clip-rule="evenodd" d="M112.897 84.709C112.71 85.3498 112.597 85.7352 112.424 86.3229C112.711 86.1013 112.885 86.0342 112.938 85.9136C113.365 84.9371 114.15 85.1897 114.768 85.5056C115.43 85.8436 115.602 86.6069 115.337 87.2651C114.905 88.3391 114.406 89.4029 113.796 90.3854C112.956 91.7411 112.005 93.0513 111.432 94.5319C110.833 96.0782 109.961 97.5828 110.334 99.4009C110.51 100.259 109.794 100.763 109.01 100.412C108.584 100.221 108.201 100.242 107.78 100.263C105.111 100.397 103.734 98.5043 104.77 95.9567C106.231 92.3659 108.59 89.3306 111.046 86.3783C111.515 85.814 111.839 85.0634 112.897 84.709Z" fill="#004680"/>
<path fill-rule="evenodd" clip-rule="evenodd" d="M15.6291 140.786C15.6132 141.745 16.422 142.211 16.5337 142.976C15.3517 143.137 14.6067 142.496 14.3481 141.177C14.0673 139.743 14.5156 138.422 15.2132 137.279C16.6976 134.848 17.9364 132.276 20.0099 130.175C20.8211 129.354 21.3821 128.024 22.1712 127.031C24.4203 124.196 26.7679 121.44 29.0869 118.661C29.5526 118.103 30.1051 117.634 30.7426 117.27C31.0689 117.084 31.3904 117.041 31.6942 117.286C32.0204 117.548 31.9843 117.883 31.8021 118.207C31.5313 118.688 31.2881 119.196 30.9496 119.626C27.8162 123.607 24.5977 127.524 21.5525 131.571C20.3662 133.148 19.44 134.96 18.8016 136.853C18.5068 137.728 18.8227 138.687 18.9227 139.607C18.9495 139.857 19.2992 140.198 18.856 140.386C18.005 140.747 17.2919 141.105 18.0406 142.213C18.211 142.466 17.8238 142.599 17.5543 142.605C17.0727 142.616 16.5183 142.609 16.4615 142.01C16.4098 141.461 16.0986 141.182 15.6291 140.786Z" fill="#004680"/>
<path fill-rule="evenodd" clip-rule="evenodd" d="M36.0327 75.4017C35.7567 75.2059 35.6018 75.1684 35.4811 75.4618C35.0418 76.5307 34.6756 77.6447 34.1019 78.6375C33.755 79.2375 33.8297 80.4749 32.5012 80.1139C32.2899 80.0566 32.3331 80.3228 32.4289 80.4735C32.6528 80.8256 32.5138 81.0837 32.2711 81.38C31.8571 81.8846 31.743 82.4446 31.8505 83.1366C32.05 84.4144 31.1609 85.0373 29.992 84.513C29.8517 84.4496 29.6024 84.2365 29.5897 84.3247C29.2912 86.4071 28.1626 83.6459 27.7021 84.6547C27.3566 84.3674 27.1942 84.0018 27.1548 83.5502C27.0646 82.5151 27.4881 81.6396 27.9683 80.78C29.7878 77.5235 32.3941 74.9243 35.0671 72.3945C35.7107 71.7847 36.6805 71.7518 37.5147 71.5063C38.0044 71.3622 38.2931 71.7678 38.4785 72.1556C38.7325 72.687 38.4527 72.7424 38.018 72.6006C37.9602 73.554 37.3368 74.214 36.8251 74.9379C36.5998 75.2566 36.4538 75.6421 36.0327 75.4017Z" fill="#004680"/>
<path fill-rule="evenodd" clip-rule="evenodd" d="M74.0842 23.0576C73.9791 22.9796 73.8744 22.9017 73.7697 22.8238C73.166 23.78 72.5567 24.7325 71.9675 25.6977C71.899 25.8103 71.7647 26.0136 71.9685 26.1366C72.1102 26.222 72.3534 26.2464 72.4018 26.0671C72.7083 24.924 73.781 24.1969 74.0842 23.0576ZM69.6357 34.6645C69.2625 35.2039 69.5287 36.1259 68.3528 36.2001C67.5026 36.254 67.6561 35.8433 67.6557 35.4058C66.9247 35.4715 67.2172 36.3399 66.5698 36.5122C66.3032 35.3372 66.7365 34.2125 66.6839 33.0835C66.6919 33.0501 66.6971 33.0135 66.7004 32.9741C67.6082 32.1948 67.8176 31.0288 68.3208 30.027C68.5283 29.6129 68.6011 29.1191 68.856 28.744C70.9074 25.726 72.5767 22.4672 74.7864 19.5431C76.5181 17.2513 78.0518 14.8112 79.9013 12.6034C80.3266 12.096 80.7027 11.5397 81.6152 11.0078C80.9111 12.2828 80.375 13.2527 79.8394 14.2225C79.8525 14.184 79.8643 14.1446 79.8746 14.1037C78.463 15.2215 77.8879 16.9471 76.6791 18.2352C77.0922 18.585 77.2162 18.2202 77.4147 18.1789C77.7546 18.109 77.9645 18.3221 78.0959 18.6145C78.1607 18.7577 78.2898 18.969 78.0612 19.0276C77.0472 19.2882 77.2903 20.1294 77.2608 20.7965C77.2279 21.534 76.827 21.9391 76.2505 22.2686C75.3624 22.7761 74.8343 23.4957 74.9296 24.5703C74.7737 24.8008 74.6183 25.0317 74.4625 25.2622C73.4917 25.7382 72.1031 28.0568 72.2017 29.0365C71.6477 29.0651 71.429 30.1148 70.6751 29.5392C70.4516 28.9186 70.3249 28.6248 69.7446 29.3975C69.0114 30.373 69.1292 31.7015 68.2448 32.5732C68.1134 32.7023 68.1223 32.8929 68.3025 33.0032C68.5368 33.1468 68.7541 33.0417 68.7898 32.8117C68.9457 31.8174 69.7395 31.1184 69.9798 30.1725C70.0817 29.7735 70.1892 29.4242 70.7107 29.5031C71.0276 31.3456 69.609 32.6042 69.1226 34.1773C69.0583 34.3857 68.2767 33.8242 68.5603 34.5256C68.6983 34.8678 69.2189 35.0377 69.6357 34.6645Z" fill="#004680"/>
<path fill-rule="evenodd" clip-rule="evenodd" d="M98.6714 119.769C98.4113 120.486 98.6127 121.133 98.8418 121.754C98.9624 122.08 99.0535 122.328 98.662 122.464C98.3047 122.588 98.085 122.337 97.9583 122.064C97.6348 121.369 97.7151 120.595 97.9071 119.932C98.639 117.404 100.011 115.209 101.703 113.208C102.206 112.615 102.801 112.077 103.194 111.419C103.909 110.222 105.126 109.88 106.286 109.502C106.828 109.325 106.932 110.052 107.043 110.443C107.106 110.667 106.941 111.101 106.742 111.231C104.814 112.492 104.504 114.842 103.196 116.531C102.765 117.088 102.962 118.217 102.406 118.956C101.966 119.54 101.729 120.27 100.911 120.548C100.439 120.708 100.796 121.316 100.583 121.677C100.474 121.862 100.407 122.085 100.174 122.115C99.9421 122.145 99.6497 121.947 99.6914 121.799C99.9726 120.802 98.7958 120.548 98.6714 119.769Z" fill="#004680"/>
<path fill-rule="evenodd" clip-rule="evenodd" d="M50.1657 94.0623C50.107 94.1998 50.0483 94.3369 49.9906 94.473C48.2973 95.9654 46.9313 97.7647 45.6056 99.5556C43.7818 102.019 42.1327 104.621 40.5446 107.246C39.2006 109.468 37.4862 111.465 36.5436 113.94C36.161 114.944 35.5263 115.861 34.4185 116.547C34.1575 115.034 35.1207 114.065 35.6761 112.999C37.1388 110.19 38.9865 107.615 40.8037 105.032C44.0823 100.371 47.1622 95.5513 51.2482 91.5118C51.482 91.2809 51.6688 90.9631 52.2312 91.1349C51.8641 92.3582 50.6905 93.0004 50.1657 94.0623Z" fill="#004680"/>
<path fill-rule="evenodd" clip-rule="evenodd" d="M99.7867 76.2165C99.284 76.585 99.8764 77.5802 99.1065 77.4182C98.4503 77.2797 98.6873 76.4793 98.8521 75.9714C99.875 72.8262 101.891 70.4987 104.811 68.9745C105.253 68.7435 105.895 68.391 106.303 69.0449C106.667 69.6246 106.105 69.9772 105.784 70.3401C104.44 71.8629 103.165 73.4177 102.83 75.5165C102.746 76.0437 102.318 76.2338 101.882 76.4122C101.73 76.4746 101.577 76.5765 101.469 76.699C100.616 77.6689 99.9726 77.7712 99.7867 76.2165Z" fill="#004680"/>
<path fill-rule="evenodd" clip-rule="evenodd" d="M73.4649 19.7803C73.3241 21.3468 71.9848 22.2115 71.2567 23.4311C70.7173 24.3343 70.2775 25.359 69.4156 26.0763C69.2011 26.2547 69.1152 26.6481 68.7612 26.4491C68.4795 26.2904 68.4223 25.9693 68.6124 25.6675C69.7573 23.8522 70.8708 22.0148 72.2388 20.3525C72.5617 19.9601 73.0711 19.9709 73.5016 19.8113L73.4649 19.7803Z" fill="#004680"/>
<path fill-rule="evenodd" clip-rule="evenodd" d="M73.5016 19.8099C73.3416 19.463 73.1557 19.1405 73.4467 18.7448C75.0958 16.5004 76.7107 14.2297 78.6222 12.1929C78.7701 12.0351 78.8518 11.6615 79.186 11.8952C79.3978 12.0436 79.3452 12.2731 79.2001 12.4567C77.3313 14.8194 75.5179 17.2224 73.8204 19.7123C73.7725 19.7822 73.5866 19.7588 73.465 19.7789L73.5016 19.8099Z" fill="#004680"/>
<path fill-rule="evenodd" clip-rule="evenodd" d="M66.7002 32.9733C66.6974 33.0128 66.6918 33.0499 66.6843 33.0832C66.4585 33.6545 65.9656 34.1169 66.0078 34.7994C66.0229 35.0426 66.0552 35.3881 65.6849 35.3562C65.3539 35.3276 65.3985 35.0201 65.4276 34.7581C65.6872 32.4293 66.4787 30.2515 67.3607 28.1067C67.5124 27.7387 67.956 27.3434 68.3611 27.5321C68.8409 27.7556 68.4785 28.2297 68.3085 28.5076C67.4631 29.8901 67.0946 31.4341 66.7002 32.9733Z" fill="#004680"/>
<path fill-rule="evenodd" clip-rule="evenodd" d="M79.8755 14.1027C79.8652 14.143 79.8535 14.1825 79.8398 14.221C80.3797 13.6722 81.319 13.5098 81.4101 12.4977C81.4251 12.3305 81.8504 11.7193 82.2804 12.0963C82.6893 12.4545 82.2527 12.8328 82.0161 13.0568C80.9468 14.0693 80.098 15.2133 79.6122 16.7493C79.2014 16.2696 78.5879 15.9565 79.4047 15.3739C79.8436 15.0608 79.668 14.5083 79.8755 14.1027Z" fill="#004680"/>
<path fill-rule="evenodd" clip-rule="evenodd" d="M74.4623 25.2616C74.6182 25.0311 74.774 24.8002 74.9294 24.5697C75.1167 24.4223 75.304 24.2753 75.4909 24.1279C75.5571 24.1735 75.6223 24.219 75.688 24.2645C75.2576 25.033 74.8266 25.801 74.3961 26.5695C74.3041 26.5394 74.2121 26.5089 74.1201 26.4784C74.2342 26.0733 74.3483 25.6672 74.4623 25.2616Z" fill="#004680"/>
<path fill-rule="evenodd" clip-rule="evenodd" d="M70.1348 34.0001C69.8841 33.1181 70.5268 32.5327 70.8638 31.8525C71.1943 31.1854 71.5792 30.5451 71.9407 29.8926C72.0684 30.2245 72.0383 30.5183 71.8534 30.8432C71.2605 31.8844 70.7047 32.9463 70.1348 34.0001Z" fill="#004680"/>
</svg>
