<svg width="64" height="64" viewBox="0 0 64 64" fill="none" xmlns="http://www.w3.org/2000/svg">
<rect width="64" height="64" rx="15" fill="#FAA017"/>
<g clip-path="url(#clip0_7499_7247)">
<path d="M18.667 21.324C18.6694 20.9738 18.8095 20.6387 19.057 20.391C19.3045 20.1432 19.6395 20.0028 19.9897 20H44.011C44.7417 20 45.3337 20.5933 45.3337 21.324V42.676C45.3312 43.0262 45.1911 43.3613 44.9436 43.609C44.6962 43.8568 44.3612 43.9972 44.011 44H19.9897C19.6387 43.9996 19.3023 43.86 19.0543 43.6117C18.8063 43.3635 18.667 43.0269 18.667 42.676V21.324ZM24.0003 36V38.6667H40.0003V36H24.0003ZM24.0003 25.3333V33.3333H32.0003V25.3333H24.0003ZM34.667 25.3333V28H40.0003V25.3333H34.667ZM34.667 30.6667V33.3333H40.0003V30.6667H34.667ZM26.667 28H29.3337V30.6667H26.667V28Z" fill="#FCEACF"/>
</g>
<defs>
<clipPath id="clip0_7499_7247">
<rect width="32" height="32" fill="white" transform="translate(16 16)"/>
</clipPath>
</defs>
</svg>
