<svg width="64" height="64" viewBox="0 0 64 64" fill="none" xmlns="http://www.w3.org/2000/svg">
<rect width="64" height="64" rx="15" fill="#F6515B"/>
<g clip-path="url(#clip0_7499_7260)">
<path d="M38.6663 28.2663L45.617 23.3997C45.7169 23.3296 45.8342 23.2883 45.956 23.2803C46.0778 23.2723 46.1994 23.2979 46.3077 23.3543C46.4159 23.4107 46.5066 23.4958 46.5699 23.6001C46.6331 23.7045 46.6665 23.8243 46.6663 23.9463V40.053C46.6665 40.1751 46.6331 40.2948 46.5699 40.3992C46.5066 40.5036 46.4159 40.5886 46.3077 40.645C46.1994 40.7014 46.0778 40.727 45.956 40.719C45.8342 40.711 45.7169 40.6697 45.617 40.5997L38.6663 35.733V41.333C38.6663 41.6866 38.5259 42.0258 38.2758 42.2758C38.0258 42.5259 37.6866 42.6663 37.333 42.6663H18.6663C18.3127 42.6663 17.9736 42.5259 17.7235 42.2758C17.4735 42.0258 17.333 41.6866 17.333 41.333V22.6663C17.333 22.3127 17.4735 21.9736 17.7235 21.7235C17.9736 21.4735 18.3127 21.333 18.6663 21.333H37.333C37.6866 21.333 38.0258 21.4735 38.2758 21.7235C38.5259 21.9736 38.6663 22.3127 38.6663 22.6663V28.2663ZM22.6663 26.6663V29.333H25.333V26.6663H22.6663Z" fill="#FFDCDE"/>
</g>
<defs>
<clipPath id="clip0_7499_7260">
<rect width="32" height="32" fill="white" transform="translate(16 16)"/>
</clipPath>
</defs>
</svg>
