<svg width="64" height="64" viewBox="0 0 64 64" fill="none" xmlns="http://www.w3.org/2000/svg">
<rect width="64" height="64" rx="15" fill="#11BDCF"/>
<g clip-path="url(#clip0_7499_7242)">
<path d="M32 31.4003C28.8533 28.467 24.64 26.667 20 26.667V41.3337C24.64 41.3337 28.8533 43.1337 32 46.067C35.1467 43.147 39.36 41.3337 44 41.3337V26.667C39.36 26.667 35.1467 28.467 32 31.4003ZM32 26.667C34.2133 26.667 36 24.8803 36 22.667C36 20.4537 34.2133 18.667 32 18.667C29.7867 18.667 28 20.4537 28 22.667C28 24.8803 29.7867 26.667 32 26.667Z" fill="#DBF5F8"/>
</g>
<defs>
<clipPath id="clip0_7499_7242">
<rect width="32" height="32" fill="white" transform="translate(16 16)"/>
</clipPath>
</defs>
</svg>
