<svg width="470" height="470" viewBox="0 0 470 470" fill="none" xmlns="http://www.w3.org/2000/svg">
<path fill-rule="evenodd" clip-rule="evenodd" d="M232.818 22.1992L217.3 6.62562L222.571 1.37427L239.686 18.5512C353.241 21.18 445.176 111.283 450.766 224.111L447.893 226.994L443.216 222.3C436.748 114.382 348.444 28.5281 239.543 25.9899L222.571 43.0241L217.3 37.7727L232.818 22.1992ZM26.0784 220.249C33.2781 116.968 115.469 34.3596 218.547 26.5381L222.87 22.1992L219.68 18.9971C112.114 26.3124 26.1205 112.233 18.6525 219.784L1.36481 237.134L6.63518 242.385L22.1336 226.831L37.6319 242.385L42.9023 237.134L26.0784 220.249ZM432.381 221.451L447.879 237.005L463.364 221.452L468.636 226.702L450.827 244.588C445.876 358.323 353.205 449.291 238.803 451.48L235.137 447.801L238.887 444.037C349.64 441.798 439.249 353.388 443.442 243.093L427.111 226.703L432.381 221.451ZM225.188 447.8L240.704 432.227L235.434 426.976L218.964 443.506C112.573 435.645 28.332 348.123 25.6326 240.343L22.1326 236.83L18.2012 240.776C21.1113 352.055 107.96 442.429 217.748 450.875L235.448 468.627L240.716 463.373L225.188 447.8Z" fill="#D5D5D5"/>
<rect x="38" y="38" width="96" height="96" rx="35" fill="#11BDCF"/>
<g clip-path="url(#clip0_1_369)">
<path d="M86 85.1C81.28 80.7 74.96 78 68 78V100C74.96 100 81.28 102.7 86 107.1C90.72 102.72 97.04 100 104 100V78C97.04 78 90.72 80.7 86 85.1ZM86 78C89.32 78 92 75.32 92 72C92 68.68 89.32 66 86 66C82.68 66 80 68.68 80 72C80 75.32 82.68 78 86 78Z" fill="white"/>
</g>
<rect x="336" y="38" width="96" height="96" rx="35" fill="#FAA017"/>
<path d="M403.559 83.4394L376.564 66.9424C376.11 66.6643 375.589 66.5125 375.056 66.5024C374.523 66.4923 373.998 66.6244 373.533 66.885C373.068 67.1456 372.681 67.5254 372.411 67.9853C372.142 68.4452 372 68.9685 372 69.5015V102.499C372 103.031 372.143 103.554 372.412 104.014C372.682 104.474 373.069 104.853 373.533 105.114C373.998 105.374 374.524 105.506 375.057 105.497C375.589 105.487 376.11 105.335 376.564 105.058L403.559 88.5605C403.997 88.2924 404.359 87.9161 404.611 87.4677C404.862 87.0194 404.994 86.514 404.994 86C404.994 85.486 404.862 84.9806 404.611 84.5322C404.359 84.0839 403.997 83.7076 403.559 83.4394V83.4394Z" fill="white"/>
<rect x="336" y="336" width="96" height="96" rx="35" fill="#0E6ACD"/>
<path d="M391.5 402C391.5 402.398 391.342 402.779 391.061 403.061C390.779 403.342 390.398 403.5 390 403.5H378C377.602 403.5 377.221 403.342 376.939 403.061C376.658 402.779 376.5 402.398 376.5 402C376.5 401.602 376.658 401.221 376.939 400.939C377.221 400.658 377.602 400.5 378 400.5H390C390.398 400.5 390.779 400.658 391.061 400.939C391.342 401.221 391.5 401.602 391.5 402V402ZM403.5 372V393C403.499 394.193 403.024 395.337 402.18 396.18C401.337 397.024 400.193 397.499 399 397.5H369C367.807 397.499 366.663 397.024 365.82 396.18C364.976 395.337 364.501 394.193 364.5 393V372C364.501 370.807 364.976 369.663 365.82 368.82C366.663 367.976 367.807 367.501 369 367.5H399C400.193 367.501 401.337 367.976 402.18 368.82C403.024 369.663 403.499 370.807 403.5 372V372ZM391.5 382.5C391.5 382.253 391.439 382.01 391.322 381.792C391.206 381.575 391.037 381.389 390.832 381.252L381.832 375.252C381.606 375.101 381.344 375.014 381.072 375.001C380.801 374.988 380.531 375.049 380.292 375.177C380.052 375.305 379.852 375.496 379.713 375.729C379.573 375.962 379.5 376.228 379.5 376.5V388.5C379.5 388.771 379.574 389.038 379.713 389.271C379.853 389.504 380.053 389.694 380.292 389.822C380.532 389.951 380.801 390.011 381.072 389.998C381.344 389.985 381.606 389.899 381.832 389.748L390.832 383.748C391.037 383.611 391.206 383.425 391.322 383.207C391.439 382.99 391.5 382.747 391.5 382.5V382.5Z" fill="white"/>
<rect x="38" y="336" width="96" height="96" rx="35" fill="#24AE5F"/>
<path d="M105.84 373.24C105.637 372.751 105.249 372.363 104.76 372.16C104.52 372.058 104.261 372.003 104 372H94C93.4696 372 92.9609 372.211 92.5858 372.586C92.2107 372.961 92 373.47 92 374C92 374.53 92.2107 375.039 92.5858 375.414C92.9609 375.789 93.4696 376 94 376H99.18L88 387.18L81.42 380.58C81.2341 380.393 81.0129 380.244 80.7692 380.142C80.5254 380.041 80.264 379.988 80 379.988C79.736 379.988 79.4746 380.041 79.2308 380.142C78.9871 380.244 78.7659 380.393 78.58 380.58L66.58 392.58C66.3925 392.766 66.2438 392.987 66.1422 393.231C66.0407 393.475 65.9884 393.736 65.9884 394C65.9884 394.264 66.0407 394.525 66.1422 394.769C66.2438 395.013 66.3925 395.234 66.58 395.42C66.7659 395.607 66.9871 395.756 67.2308 395.858C67.4746 395.959 67.736 396.012 68 396.012C68.264 396.012 68.5254 395.959 68.7692 395.858C69.0129 395.756 69.2341 395.607 69.42 395.42L80 384.82L86.58 391.42C86.7659 391.607 86.9871 391.756 87.2308 391.858C87.4746 391.959 87.736 392.012 88 392.012C88.264 392.012 88.5254 391.959 88.7692 391.858C89.0129 391.756 89.2341 391.607 89.42 391.42L102 378.82V384C102 384.53 102.211 385.039 102.586 385.414C102.961 385.789 103.47 386 104 386C104.53 386 105.039 385.789 105.414 385.414C105.789 385.039 106 384.53 106 384V374C105.997 373.739 105.942 373.48 105.84 373.24Z" fill="white"/>
<defs>
<clipPath id="clip0_1_369">
<rect width="48" height="48" fill="white" transform="translate(62 62)"/>
</clipPath>
</defs>
</svg>
