<svg width="125" height="40" viewBox="0 0 125 40" fill="none" xmlns="http://www.w3.org/2000/svg">
<path d="M120.42 39.875H4.45576C1.99502 39.875 0 38.1527 0 36.0277V8.51657C0 6.45463 1.88372 4.75851 4.27035 4.67264L120.234 0.503398C122.765 0.41243 124.875 2.15974 124.875 4.34733V36.0284C124.876 38.1524 122.881 39.875 120.42 39.875Z" fill="#11BDCF"/>
<path d="M19.4664 25.3202V30.9961C19.4668 31.0434 19.4556 31.0901 19.4338 31.1321C19.4119 31.174 19.3801 31.21 19.3411 31.2368C17.6569 32.3787 15.0883 33.1893 12.9461 33.1893C8.17267 33.1893 4.56445 29.738 4.56445 25.1667C4.56445 20.618 8.26194 17.1895 13.2142 17.1895C15.4421 17.1895 17.7938 18.0092 19.4057 19.3347C19.4639 19.3842 19.5002 19.4546 19.5066 19.5307C19.513 19.6068 19.4891 19.6823 19.4401 19.7409L17.5679 22.0059C17.5436 22.0349 17.5138 22.0589 17.4802 22.0763C17.4466 22.0937 17.4098 22.1042 17.372 22.1072C17.3343 22.1102 17.2963 22.1057 17.2604 22.0939C17.2244 22.082 17.1912 22.0632 17.1626 22.0383C16.0412 21.0999 14.5566 20.5279 13.1915 20.5279C10.6148 20.5279 8.64314 22.5451 8.64314 25.1667C8.64314 27.8337 10.6367 29.85 13.2361 29.85C13.9968 29.85 14.955 29.5919 15.851 29.1683C15.9003 29.1445 15.9419 29.1072 15.9709 29.0607C16 29.0142 16.0153 28.9605 16.0151 28.9057V25.3202C16.0151 25.2825 16.0225 25.2451 16.037 25.2102C16.0515 25.1753 16.0727 25.1436 16.0994 25.1169C16.1261 25.0902 16.1579 25.069 16.1928 25.0546C16.2277 25.0401 16.2651 25.0327 16.3029 25.0328H19.1786C19.2164 25.0327 19.2538 25.0401 19.2887 25.0546C19.3236 25.069 19.3554 25.0902 19.3821 25.1169C19.4088 25.1436 19.43 25.1753 19.4445 25.2102C19.459 25.2451 19.4664 25.2825 19.4664 25.3202Z" fill="#113255"/>
<path d="M30.2706 28.596H27.1326V33.0112H23.1445V17.3242H30.1586C34.3032 17.3242 36.6786 19.297 36.6786 22.7921C36.6786 25.1902 35.6708 26.916 33.8333 27.8344L37.1269 33.0112H32.6005L30.2706 28.596ZM30.1597 25.4591C31.8844 25.4591 32.8932 24.5853 32.8932 22.9268C32.8932 21.2912 31.8844 20.4614 30.1597 20.4614H27.1326V25.4591H30.1597Z" fill="#113255"/>
<path d="M43.8308 30.1194L42.6881 33.0112H38.5869L45.3556 17.3242H49.4559L56.0655 33.0112H51.8085L50.688 30.12L43.8308 30.1194ZM47.2824 21.2906L44.9952 27.0945H49.5225L47.2824 21.2906Z" fill="#113255"/>
<path d="M65.1663 17.3242C70.0964 17.3242 73.5022 20.5069 73.5022 25.1675C73.5022 29.8061 70.0509 33.0107 65.0094 33.0107H58.4209V17.3242H65.1663ZM62.41 29.8289H65.2556C67.6983 29.8289 69.446 27.9465 69.446 25.1902C69.446 22.4112 67.609 20.5069 65.077 20.5069H62.41V29.8289Z" fill="#113255"/>
<path d="M80.4961 20.4614V23.5767H87.9815V26.7136H80.4961V29.8741H89.035V33.0112H76.5078V17.3242H88.7874V20.4614H80.4961Z" fill="#113255"/>
<path d="M103.155 29.6722V33.0112H92.5107V17.3242H96.4988V29.6722H103.155Z" fill="#113255"/>
<path d="M114.046 33.0112H110.08V28.0584L104.276 17.3242H108.264L112.052 24.1589L115.749 17.3242H119.738L114.046 27.9464V33.0112Z" fill="#113255"/>
</svg>
