<svg width="96" height="96" viewBox="0 0 96 96" fill="none" xmlns="http://www.w3.org/2000/svg">
<rect width="96" height="96" rx="35" fill="#24AE5F"/>
<path d="M67.84 37.24C67.6371 36.7513 67.2487 36.3629 66.76 36.16C66.5196 36.0575 66.2614 36.0032 66 36H56C55.4696 36 54.9609 36.2107 54.5858 36.5858C54.2107 36.9609 54 37.4696 54 38C54 38.5304 54.2107 39.0391 54.5858 39.4142C54.9609 39.7893 55.4696 40 56 40H61.18L50 51.18L43.42 44.58C43.2341 44.3925 43.0129 44.2438 42.7692 44.1422C42.5254 44.0407 42.264 43.9884 42 43.9884C41.736 43.9884 41.4746 44.0407 41.2308 44.1422C40.9871 44.2438 40.7659 44.3925 40.58 44.58L28.58 56.58C28.3925 56.7659 28.2438 56.9871 28.1422 57.2308C28.0407 57.4746 27.9884 57.736 27.9884 58C27.9884 58.264 28.0407 58.5254 28.1422 58.7692C28.2438 59.0129 28.3925 59.2341 28.58 59.42C28.7659 59.6075 28.9871 59.7562 29.2308 59.8578C29.4746 59.9593 29.736 60.0116 30 60.0116C30.264 60.0116 30.5254 59.9593 30.7692 59.8578C31.0129 59.7562 31.2341 59.6075 31.42 59.42L42 48.82L48.58 55.42C48.7659 55.6075 48.9871 55.7562 49.2308 55.8578C49.4746 55.9593 49.736 56.0116 50 56.0116C50.264 56.0116 50.5254 55.9593 50.7692 55.8578C51.0129 55.7562 51.2341 55.6075 51.42 55.42L64 42.82V48C64 48.5304 64.2107 49.0391 64.5858 49.4142C64.9609 49.7893 65.4696 50 66 50C66.5304 50 67.0391 49.7893 67.4142 49.4142C67.7893 49.0391 68 48.5304 68 48V38C67.9968 37.7386 67.9425 37.4804 67.84 37.24Z" fill="white"/>
</svg>
