<svg width="96" height="96" viewBox="0 0 96 96" fill="none" xmlns="http://www.w3.org/2000/svg">
<rect width="96" height="96" rx="35" fill="#0E6ACD"/>
<path d="M55.5 66C55.5 66.3978 55.3419 66.7793 55.0606 67.0606C54.7793 67.3419 54.3978 67.5 54 67.5H42C41.6022 67.5 41.2206 67.342 40.9393 67.0607C40.658 66.7794 40.5 66.3978 40.5 66C40.5 65.6022 40.658 65.2206 40.9393 64.9393C41.2206 64.658 41.6022 64.5 42 64.5H54C54.3978 64.5 54.7793 64.6581 55.0606 64.9394C55.3419 65.2207 55.5 65.6022 55.5 66ZM67.5 36V57C67.4986 58.1931 67.0241 59.3369 66.1805 60.1805C65.3369 61.0241 64.1931 61.4986 63 61.5H33C31.8069 61.4986 30.6631 61.0241 29.8195 60.1805C28.9759 59.3369 28.5014 58.1931 28.5 57V36C28.5014 34.8069 28.9759 33.6631 29.8195 32.8195C30.6631 31.9759 31.8069 31.5014 33 31.5H63C64.1931 31.5014 65.3369 31.9759 66.1805 32.8195C67.0241 33.6631 67.4986 34.8069 67.5 36ZM55.5 46.5C55.4996 46.2531 55.4385 46.0101 55.322 45.7924C55.2055 45.5748 55.0372 45.3891 54.832 45.2519L45.832 39.2519C45.6062 39.1011 45.3436 39.0144 45.0723 39.0011C44.8011 38.9879 44.5313 39.0486 44.2918 39.1768C44.0524 39.3049 43.8522 39.4957 43.7128 39.7288C43.5733 39.9618 43.4998 40.2284 43.5 40.5V52.5C43.5 52.7715 43.5737 53.0379 43.7132 53.2708C43.8527 53.5037 44.0528 53.6944 44.2922 53.8225C44.5316 53.9506 44.8012 54.0113 45.0724 53.9982C45.3436 53.9851 45.6061 53.8986 45.832 53.748L54.832 47.748C55.0372 47.6108 55.2055 47.4251 55.322 47.2075C55.4385 46.9898 55.4996 46.7468 55.5 46.5Z" fill="white"/>
</svg>
