<svg width="96" height="96" viewBox="0 0 96 96" fill="none" xmlns="http://www.w3.org/2000/svg">
<rect width="96" height="96" rx="35" fill="#FAA017"/>
<path d="M67.5586 45.4394L40.5645 28.9424C40.1098 28.6643 39.5892 28.5125 39.0563 28.5024C38.5235 28.4923 37.9976 28.6244 37.5327 28.885C37.0678 29.1456 36.6808 29.5254 36.4114 29.9853C36.142 30.4452 36 30.9685 36 31.5015V64.4985C36.0004 65.0313 36.1427 65.5544 36.4122 66.014C36.6817 66.4736 37.0687 66.8532 37.5334 67.1137C37.9981 67.3743 38.5238 67.5064 39.0565 67.4965C39.5892 67.4867 40.1097 67.3352 40.5645 67.0576L67.5586 50.5605C67.9971 50.2924 68.3594 49.9161 68.6108 49.4677C68.8621 49.0194 68.9941 48.514 68.9941 48C68.9941 47.486 68.8621 46.9806 68.6108 46.5322C68.3594 46.0839 67.9971 45.7076 67.5586 45.4394Z" fill="white"/>
</svg>
