<svg width="24" height="25" viewBox="0 0 24 25" fill="none" xmlns="http://www.w3.org/2000/svg">
<path fill-rule="evenodd" clip-rule="evenodd" d="M19.1001 19.9959C19.6901 19.0959 19.9101 18.6359 20.3601 17.6259C17.0401 16.3659 16.5101 11.6359 19.7901 9.82593C18.7901 8.56593 17.3801 7.83594 16.0501 7.83594C15.0901 7.83594 14.4301 8.08595 13.8401 8.31595C13.3401 8.50595 12.8901 8.67593 12.3301 8.67593C11.7301 8.67593 11.2001 8.48595 10.6401 8.28595C10.0301 8.06595 9.39006 7.83594 8.59006 7.83594C7.10006 7.83594 5.51007 8.74594 4.50007 10.3059C3.08007 12.5059 3.33007 16.6259 5.62007 20.1459C6.44007 21.4059 7.54007 22.8159 8.97007 22.8359C9.57007 22.8459 9.96007 22.666 10.3901 22.476C10.8801 22.256 11.4101 22.0159 12.3401 22.0159C13.2701 22.0059 13.7901 22.256 14.2801 22.476C14.7001 22.666 15.0801 22.8459 15.6701 22.8359C17.1201 22.8159 18.2801 21.2559 19.1001 19.9959Z" fill="#FAA017"/>
<path fill-rule="evenodd" clip-rule="evenodd" d="M15.8404 2.83594C16.0004 3.93594 15.5504 5.02595 14.9604 5.78595C14.3304 6.60595 13.2304 7.24593 12.1704 7.20593C11.9804 6.14593 12.4704 5.05593 13.0704 4.32593C13.7404 3.52593 14.8704 2.90594 15.8404 2.83594Z" fill="#FAA017"/>
</svg>
