<svg width="32" height="32" viewBox="0 0 32 32" fill="none" xmlns="http://www.w3.org/2000/svg">
<path d="M20.7203 15.0537L13.1736 7.52037C13.0497 7.3954 12.9022 7.29621 12.7397 7.22852C12.5773 7.16083 12.403 7.12598 12.227 7.12598C12.051 7.12598 11.8767 7.16083 11.7142 7.22852C11.5517 7.29621 11.4043 7.3954 11.2803 7.52037C11.032 7.77019 10.8926 8.10813 10.8926 8.46037C10.8926 8.81262 11.032 9.15056 11.2803 9.40037L17.8803 16.067L11.2803 22.667C11.032 22.9169 10.8926 23.2548 10.8926 23.607C10.8926 23.9593 11.032 24.2972 11.2803 24.547C11.4038 24.673 11.551 24.7733 11.7135 24.8419C11.876 24.9106 12.0506 24.9463 12.227 24.947C12.4034 24.9463 12.5779 24.9106 12.7404 24.8419C12.9029 24.7733 13.0501 24.673 13.1736 24.547L20.7203 17.0137C20.8556 16.8889 20.9637 16.7373 21.0375 16.5686C21.1114 16.4 21.1495 16.2178 21.1495 16.0337C21.1495 15.8496 21.1114 15.6674 21.0375 15.4988C20.9637 15.3301 20.8556 15.1786 20.7203 15.0537Z" fill="#959595"/>
</svg>
