<svg width="30" height="30" viewBox="0 0 30 30" fill="none" xmlns="http://www.w3.org/2000/svg">
<circle cx="15" cy="15" r="15" fill="#F5F5F5"/>
<g clip-path="url(#clip0_7001_7708)">
<path d="M20.7717 9.22794C20.6992 9.15537 20.6132 9.0978 20.5185 9.05852C20.4238 9.01924 20.3222 8.99902 20.2197 8.99902C20.1172 8.99902 20.0156 9.01924 19.9209 9.05852C19.8262 9.0978 19.7401 9.15537 19.6677 9.22794L14.9997 13.8959L10.3437 9.22794C10.2712 9.15537 10.1852 9.0978 10.0905 9.05852C9.99577 9.01924 9.89423 8.99902 9.79169 8.99902C9.68915 8.99902 9.58762 9.01924 9.4929 9.05852C9.39818 9.0978 9.31214 9.15537 9.23969 9.22794C9.16713 9.30038 9.10956 9.38643 9.07028 9.48115C9.031 9.57586 9.01078 9.6774 9.01078 9.77994C9.01078 9.88248 9.031 9.98401 9.07028 10.0787C9.10956 10.1734 9.16713 10.2595 9.23969 10.3319L13.8957 14.9999L9.22769 19.6559C9.15513 19.7284 9.09756 19.8144 9.05828 19.9091C9.019 20.0039 8.99878 20.1054 8.99878 20.2079C8.99878 20.3105 9.019 20.412 9.05828 20.5067C9.09756 20.6014 9.15513 20.6875 9.22769 20.7599C9.30014 20.8325 9.38618 20.8901 9.4809 20.9294C9.57562 20.9686 9.67715 20.9888 9.77969 20.9888C9.88223 20.9888 9.98377 20.9686 10.0785 20.9294C10.1732 20.8901 10.2592 20.8325 10.3317 20.7599L14.9997 16.1039L19.6557 20.7719C19.7281 20.8445 19.8142 20.9021 19.9089 20.9414C20.0036 20.9806 20.1052 21.0008 20.2077 21.0008C20.3102 21.0008 20.4118 20.9806 20.5065 20.9414C20.6012 20.9021 20.6872 20.8445 20.7597 20.7719C20.8323 20.6995 20.8898 20.6134 20.9291 20.5187C20.9684 20.424 20.9886 20.3225 20.9886 20.2199C20.9886 20.1174 20.9684 20.0159 20.9291 19.9211C20.8898 19.8264 20.8323 19.7404 20.7597 19.6679L16.1037 14.9999L20.7717 10.3439C20.8461 10.2713 20.9052 10.1845 20.9455 10.0887C20.9859 9.99284 21.0067 9.88991 21.0067 9.78594C21.0067 9.68196 20.9859 9.57903 20.9455 9.48321C20.9052 9.38738 20.8461 9.30059 20.7717 9.22794Z" fill="#113255"/>
</g>
<defs>
<clipPath id="clip0_7001_7708">
<rect width="12" height="12" fill="white" transform="translate(9 9)"/>
</clipPath>
</defs>
</svg>
