<svg width="24" height="25" viewBox="0 0 24 25" fill="none" xmlns="http://www.w3.org/2000/svg">
<path d="M21.3995 13.3182L18.6195 14.7082C18.4295 14.8082 18.1995 14.7682 18.0395 14.6182L16.1695 12.7482C15.9695 12.5482 15.9695 12.2382 16.1695 12.0382L18.0695 10.1382C18.2195 9.98818 18.4595 9.94819 18.6495 10.0482L21.3995 11.4282C22.1895 11.8082 22.1895 12.9282 21.3995 13.3182Z" fill="#FAA017"/>
<path d="M16.3009 8.85862C16.6109 9.00862 16.6709 9.41863 16.4309 9.65863L14.7609 11.3286L14.0509 12.0386C13.8509 12.2386 13.5409 12.2386 13.3409 12.0386L6.20095 4.89862C5.80095 4.49862 6.27095 3.84864 6.78095 4.09864L16.3009 8.85862Z" fill="#FAA017"/>
<path d="M2 20.5182V3.84825C2 3.40825 2.53 3.17823 2.85 3.48823L11.62 11.9982C11.83 12.1982 11.82 12.5282 11.61 12.7282L2.84 20.8882C2.52 21.1882 2 20.9582 2 20.5182Z" fill="#FAA017"/>
<path d="M16.2706 15.8879L6.88056 20.5879C6.37056 20.8379 5.90056 20.1879 6.30056 19.7879L13.3506 12.7379C13.5506 12.5379 13.8606 12.5379 14.0606 12.7379L16.4106 15.0879C16.6406 15.3279 16.5706 15.7379 16.2706 15.8879Z" fill="#FAA017"/>
</svg>
