<svg width="24" height="24" viewBox="0 0 24 24" fill="none" xmlns="http://www.w3.org/2000/svg">
<circle cx="12" cy="12" r="12" fill="#DBF5F8"/>
<g clip-path="url(#clip0_6640_4371)">
<path d="M15 4H9C6.239 4 4 6.239 4 9V15C4 17.761 6.239 20 9 20H15C17.761 20 20 17.761 20 15V9C20 6.239 17.761 4 15 4ZM18.5 15C18.5 16.93 16.93 18.5 15 18.5H9C7.07 18.5 5.5 16.93 5.5 15V9C5.5 7.07 7.07 5.5 9 5.5H15C16.93 5.5 18.5 7.07 18.5 9V15Z" fill="#004680"/>
<path d="M12 8C9.791 8 8 9.791 8 12C8 14.209 9.791 16 12 16C14.209 16 16 14.209 16 12C16 9.791 14.209 8 12 8ZM12 14.5C10.622 14.5 9.5 13.378 9.5 12C9.5 10.621 10.622 9.5 12 9.5C13.378 9.5 14.5 10.621 14.5 12C14.5 13.378 13.378 14.5 12 14.5Z" fill="#004680"/>
<path d="M16.3006 8.23396C16.5949 8.23396 16.8336 7.99533 16.8336 7.70097C16.8336 7.4066 16.5949 7.16797 16.3006 7.16797C16.0062 7.16797 15.7676 7.4066 15.7676 7.70097C15.7676 7.99533 16.0062 8.23396 16.3006 8.23396Z" fill="#004680"/>
</g>
<defs>
<clipPath id="clip0_6640_4371">
<rect width="16" height="16" fill="white" transform="translate(4 4)"/>
</clipPath>
</defs>
</svg>
