<svg width="24" height="24" viewBox="0 0 24 24" fill="none" xmlns="http://www.w3.org/2000/svg">
<circle cx="12" cy="12" r="12" fill="#DBF5F8"/>
<g clip-path="url(#clip0_6640_4393)">
<path d="M20.7416 13.8096V20H17.1539V14.2219C17.1539 12.7702 16.6356 11.7824 15.3357 11.7824C14.9311 11.7848 14.5372 11.912 14.2076 12.1467C13.8781 12.3814 13.6291 12.7122 13.4946 13.0938C13.4019 13.3761 13.3611 13.673 13.3744 13.9699V20H9.78669C9.78669 20 9.83536 10.219 9.78669 9.20544H13.3744V10.7344L13.3515 10.7688H13.3744V10.7344C13.6983 10.1716 14.1699 9.70804 14.7381 9.39367C15.3063 9.0793 15.9495 8.9261 16.5984 8.95061C18.9721 8.95061 20.7416 10.4939 20.7416 13.8096ZM6.03006 4C4.80458 4 4 4.80458 4 5.86399C4 6.92341 4.77881 7.72226 5.98425 7.72226H6.00429C7.25555 7.72226 8.03436 6.89191 8.03436 5.8554C8.03436 4.8189 7.25841 4 6.03006 4ZM4.21188 20H7.80243V9.20258H4.21188V20Z" fill="#004680"/>
</g>
<defs>
<clipPath id="clip0_6640_4393">
<rect width="16.7416" height="16" fill="white" transform="translate(4 4)"/>
</clipPath>
</defs>
</svg>
