<svg width="48" height="48" viewBox="0 0 48 48" fill="none" xmlns="http://www.w3.org/2000/svg">
<rect width="48" height="48" rx="15" fill="#004680"/>
<path d="M24 14.25C22.3065 14.2505 20.6424 14.6919 19.1713 15.5308C17.7002 16.3697 16.4729 17.5773 15.6103 19.0345C14.7476 20.4918 14.2792 22.1486 14.2513 23.8418C14.2234 25.5351 14.6369 27.2064 15.451 28.6913L14.6498 31.4959C14.5763 31.7531 14.5729 32.0253 14.64 32.2842C14.707 32.5432 14.8422 32.7795 15.0313 32.9687C15.2205 33.1578 15.4568 33.293 15.7157 33.3601C15.9747 33.4272 16.2469 33.4238 16.5041 33.3503L19.3087 32.549C20.612 33.2642 22.0617 33.6718 23.5467 33.7409C25.0318 33.8099 26.5129 33.5384 27.877 32.9472C29.241 32.356 30.4518 31.4607 31.4168 30.3297C32.3818 29.1988 33.0754 27.8622 33.4445 26.4221C33.8137 24.9821 33.8488 23.4766 33.5469 22.0209C33.2451 20.5652 32.6143 19.1978 31.703 18.0233C30.7916 16.8487 29.6238 15.8981 28.2887 15.2441C26.9536 14.5901 25.4867 14.2501 24 14.25ZM26.2617 30C26.2589 30.0022 26.2538 30 26.2499 30C25.1655 30 24.0917 29.7862 23.0901 29.3709C22.0884 28.9556 21.1784 28.3468 20.4122 27.5795C19.6459 26.8122 19.0385 25.9013 18.6246 24.8991C18.2107 23.8968 17.9984 22.8228 18 21.7384C18.0034 20.8454 18.3604 19.9901 18.9929 19.3598C19.6255 18.7294 20.482 18.3753 21.375 18.375C21.621 18.3753 21.8627 18.4405 22.0755 18.564C22.2883 18.6875 22.4648 18.8649 22.5872 19.0784L23.6832 20.9966C23.8153 21.228 23.8834 21.4904 23.8805 21.7568C23.8777 22.0232 23.804 22.284 23.6671 22.5125L23.0005 23.6236C23.3302 24.1953 23.8048 24.6699 24.3764 24.9996L25.4874 24.3329C25.716 24.196 25.9768 24.1223 26.2432 24.1194C26.5096 24.1166 26.772 24.1847 27.0034 24.3167L28.9215 25.4128C29.135 25.5351 29.3124 25.7116 29.436 25.9244C29.5595 26.1373 29.6247 26.3789 29.625 26.625C29.6246 27.518 29.2705 28.3744 28.6402 29.007C28.0099 29.6395 27.1546 29.9965 26.2617 30Z" fill="#DBF5F8"/>
<path d="M24.7922 26.4994C24.6885 26.5616 24.5713 26.5979 24.4505 26.605C24.3297 26.6121 24.2091 26.5899 24.0987 26.5403C22.9257 26.0133 21.9868 25.0744 21.4598 23.9014C21.4102 23.791 21.388 23.6703 21.3951 23.5496C21.4022 23.4288 21.4385 23.3116 21.5007 23.2079L22.3809 21.7408L21.3153 19.876C20.8302 19.8912 20.3699 20.094 20.0313 20.4418C19.6927 20.7895 19.5023 21.2551 19.5 21.7404C19.4987 22.6277 19.6724 23.5065 20.0111 24.3265C20.3497 25.1466 20.8467 25.8918 21.4736 26.5196C22.1006 27.1474 22.8451 27.6455 23.6647 27.9853C24.4843 28.3251 25.3628 28.5001 26.25 28.5001H26.2596C26.745 28.4978 27.2105 28.3073 27.5583 27.9688C27.906 27.6302 28.1089 27.1699 28.1241 26.6848L26.2593 25.6192L24.7922 26.4994Z" fill="#DBF5F8"/>
</svg>
