<svg width="48" height="49" viewBox="0 0 48 49" fill="none" xmlns="http://www.w3.org/2000/svg">
<rect y="0.5" width="48" height="48" rx="15" fill="#004680"/>
<path d="M24.0009 14.749C22.2576 14.7489 20.5462 15.2161 19.0448 16.1021C17.5435 16.988 16.3071 18.2603 15.4645 19.7864C14.6219 21.3126 14.2039 23.0367 14.254 24.7792C14.3041 26.5218 14.8205 28.219 15.7494 29.6942C16.6783 31.1694 17.9857 32.3686 19.5355 33.1668C21.0852 33.965 22.8207 34.3332 24.5611 34.2329C26.3014 34.1326 27.9831 33.5675 29.4309 32.5964C30.8787 31.6254 32.0397 30.284 32.7929 28.7118C32.2597 28.9094 31.6945 29.0068 31.1259 28.999C29.4115 28.999 28.4517 28.2486 27.9486 27.619C27.8313 27.4719 27.7255 27.3162 27.6319 27.1531C27.0957 27.8876 26.3497 28.4425 25.4919 28.7446C24.6342 29.0467 23.7051 29.0819 22.827 28.8456C21.9489 28.6092 21.1629 28.1124 20.5727 27.4206C19.9825 26.7288 19.6158 25.8744 19.5207 24.97C19.4257 24.0656 19.6068 23.1536 20.0403 22.3542C20.4738 21.5548 21.1393 20.9055 21.9491 20.4918C22.7589 20.078 23.6751 19.9193 24.5769 20.0366C25.4787 20.1538 26.3238 20.5415 27.0009 21.1485V20.749C27.0009 20.5501 27.0799 20.3593 27.2206 20.2187C27.3612 20.078 27.552 19.999 27.7509 19.999C27.9498 19.999 28.1406 20.078 28.2812 20.2187C28.4219 20.3593 28.5009 20.5501 28.5009 20.749V24.499C28.5009 25.8676 28.9563 27.499 31.1259 27.499C33.2208 27.499 33.7174 25.9781 33.7491 24.6413C33.7498 24.5939 33.7509 24.5466 33.7509 24.499C33.748 21.9141 32.7198 19.4358 30.892 17.608C29.0641 15.7801 26.5859 14.7519 24.0009 14.749Z" fill="#DBF5F8"/>
<path d="M24 27.499C25.6569 27.499 27 26.1559 27 24.499C27 22.8422 25.6569 21.499 24 21.499C22.3431 21.499 21 22.8422 21 24.499C21 26.1559 22.3431 27.499 24 27.499Z" fill="#DBF5F8"/>
</svg>
