<svg width="48" height="48" viewBox="0 0 48 48" fill="none" xmlns="http://www.w3.org/2000/svg">
<rect width="48" height="48" rx="15" fill="#004680"/>
<path d="M32.8098 26.852L28.4188 24.9702C28.1895 24.8715 27.9392 24.8317 27.6907 24.8546C27.4421 24.8774 27.2032 24.9621 26.9958 25.1009L24.648 26.6659C23.2131 25.968 22.0518 24.8118 21.3475 23.38L21.3477 23.3798L22.9072 20.9969C23.043 20.79 23.1253 20.5527 23.1469 20.3062C23.1685 20.0597 23.1287 19.8117 23.031 19.5844L21.1474 15.1896C21.0192 14.8913 20.7978 14.6425 20.5163 14.4805C20.2349 14.3186 19.9086 14.2521 19.5862 14.2912C18.3196 14.454 17.1555 15.0725 16.3115 16.031C15.4675 16.9894 15.0013 18.2224 15 19.4995C15 26.9435 21.056 32.9995 28.5 32.9995C29.7771 32.9982 31.0101 32.532 31.9686 31.688C32.9271 30.844 33.5455 29.6799 33.7083 28.4132C33.7473 28.0908 33.6808 27.7645 33.5188 27.4831C33.3568 27.2017 33.1081 26.9803 32.8098 26.852Z" fill="#DBF5F8"/>
</svg>
