<svg width="23" height="23" viewBox="0 0 23 23" fill="none" xmlns="http://www.w3.org/2000/svg">
<g clip-path="url(#clip0_820_256)">
<path d="M8.97575 10.2369C9.87499 11.8167 11.1833 13.125 12.7631 14.0242L13.6102 12.8378C13.7465 12.6471 13.9479 12.5128 14.1764 12.4606C14.405 12.4083 14.6447 12.4416 14.8503 12.5542C16.2057 13.2949 17.7025 13.7404 19.2424 13.8613C19.4827 13.8804 19.707 13.9893 19.8706 14.1664C20.0342 14.3435 20.125 14.5757 20.125 14.8168V19.0929C20.1251 19.3302 20.0371 19.559 19.8781 19.7352C19.7191 19.9113 19.5005 20.0222 19.2644 20.0464C18.7565 20.0991 18.2447 20.125 17.7292 20.125C9.52583 20.125 2.875 13.4742 2.875 5.27083C2.875 4.75525 2.90088 4.2435 2.95358 3.73558C2.97779 3.49954 3.08869 3.28087 3.26484 3.1219C3.44099 2.96292 3.66985 2.87495 3.90713 2.875H8.18321C8.42429 2.87497 8.65652 2.9658 8.83361 3.12939C9.0107 3.29298 9.11962 3.5173 9.13867 3.75762C9.25963 5.29747 9.70511 6.79428 10.4458 8.14967C10.5584 8.35529 10.5917 8.59504 10.5394 8.82356C10.4872 9.05208 10.3529 9.25352 10.1622 9.38975L8.97575 10.2369V10.2369ZM6.55883 9.60729L8.37967 8.30683C7.86292 7.19142 7.50888 6.00764 7.32837 4.79167H4.80125C4.7955 4.95075 4.79262 5.11079 4.79262 5.27083C4.79167 12.4162 10.5838 18.2083 17.7292 18.2083C17.8892 18.2083 18.0492 18.2055 18.2083 18.1987V15.6716C16.9924 15.4911 15.8086 15.1371 14.6932 14.6203L13.3927 16.4412C12.8691 16.2377 12.3606 15.9975 11.8709 15.7224L11.8153 15.6908C9.9356 14.621 8.37898 13.0644 7.30921 11.1847L7.27758 11.1291C7.00245 10.6394 6.76227 10.1309 6.55883 9.60729V9.60729Z" fill="#004680"/>
</g>
<defs>
<clipPath id="clip0_820_256">
<rect width="23" height="23" fill="white"/>
</clipPath>
</defs>
</svg>
