<svg width="24" height="24" viewBox="0 0 24 24" fill="none" xmlns="http://www.w3.org/2000/svg">
<circle cx="12" cy="12" r="12" fill="#DBF5F8"/>
<g clip-path="url(#clip0_6640_4383)">
<path d="M20 6.53858C19.4011 6.8039 18.7659 6.97799 18.1154 7.05506C18.8002 6.64441 19.3127 5.99914 19.5577 5.23913C18.9096 5.62244 18.2006 5.89191 17.4615 6.03583C16.9632 5.51902 16.3099 5.17898 15.6007 5.06741C14.8915 4.95583 14.1652 5.07881 13.5323 5.41765C12.8994 5.75649 12.3944 6.29268 12.094 6.94474C11.7936 7.5968 11.7143 8.32909 11.8681 9.03034C10.5651 8.96303 9.29065 8.62282 8.1274 8.03173C6.96415 7.44064 5.938 6.61185 5.11538 5.59902C4.69411 6.32333 4.56444 7.18087 4.75275 7.99735C4.94105 8.81383 5.43318 9.52797 6.12912 9.99463C5.60789 9.97798 5.09824 9.83667 4.64286 9.58254V9.62375C4.6456 10.3806 4.90868 11.1135 5.38793 11.6993C5.86718 12.2851 6.53341 12.6881 7.27473 12.8408C6.79113 12.9731 6.28362 12.9929 5.79121 12.8985C6.00467 13.5477 6.41464 14.1146 6.96441 14.5207C7.51418 14.9267 8.17655 15.1519 8.85989 15.165C7.69702 16.0776 6.2612 16.573 4.78297 16.5715C4.52155 16.5762 4.26009 16.5652 4 16.5386C5.50032 17.5031 7.24661 18.0153 9.03022 18.0139C15.0742 18.0139 18.3709 13.0111 18.3709 8.6732C18.3709 8.53034 18.3709 8.39847 18.3709 8.25012C19.0172 7.78708 19.5755 7.21208 20.0192 6.55232L20 6.53858Z" fill="#004680"/>
</g>
<defs>
<clipPath id="clip0_6640_4383">
<rect width="16" height="13.0027" fill="white" transform="translate(4 5)"/>
</clipPath>
</defs>
</svg>
