<svg width="22" height="24" viewBox="0 0 22 24" fill="none" xmlns="http://www.w3.org/2000/svg">
<path d="M0.434925 0.379219C0.129163 0.744805 -0.025226 1.21348 0.00338893 1.68921V22.3113C-0.0253091 22.787 0.12909 23.2557 0.434925 23.6213L0.503926 23.6885L12.056 12.1365V11.864L0.503926 0.311523L0.434925 0.379219Z" fill="url(#paint0_linear_4642_15314)"/>
<path d="M15.9071 15.9889L12.0566 12.1366V11.8641L15.908 8.0127L15.9948 8.06221L20.5571 10.6545C21.8603 11.3949 21.8603 12.6063 20.5571 13.3471L15.9948 15.9394L15.9071 15.9889Z" fill="url(#paint1_linear_4642_15314)"/>
<path d="M15.9948 15.9386L12.0566 12L0.435547 23.621C0.701079 23.8552 1.04017 23.9891 1.39407 23.9996C1.74796 24.01 2.09437 23.8963 2.37326 23.6782L15.9948 15.9386Z" fill="url(#paint2_linear_4642_15314)"/>
<path d="M15.9948 8.06166L2.37326 0.321982C2.09437 0.103877 1.74796 -0.00979422 1.39407 0.000662096C1.04017 0.0111184 0.701079 0.145044 0.435547 0.379234L12.0566 12.0003L15.9948 8.06166Z" fill="url(#paint3_linear_4642_15314)"/>
<path opacity="0.2" d="M15.908 15.8516L2.37326 23.5417C2.10511 23.7459 1.77782 23.8572 1.44081 23.859C1.10379 23.8608 0.775336 23.753 0.505014 23.5517L0.435547 23.6212L0.504548 23.6884L0.505014 23.6879C0.775291 23.8893 1.10376 23.9972 1.44081 23.9954C1.77785 23.9936 2.10515 23.8822 2.37326 23.678L15.9948 15.9383L15.908 15.8516Z" fill="white"/>
<path opacity="0.12" d="M0.434904 23.4848C0.129171 23.1192 -0.025214 22.6505 0.00336749 22.1748V22.311C-0.0252312 22.7868 0.129156 23.2554 0.434904 23.621L0.504371 23.5516L0.434904 23.4848Z" fill="white"/>
<path opacity="0.12" d="M20.5573 13.2106L15.9082 15.8524L15.995 15.9392L20.5573 13.3469C20.8257 13.2304 21.0579 13.0441 21.2298 12.8074C21.4017 12.5707 21.507 12.2922 21.5348 12.001C21.4771 12.2647 21.3587 12.5114 21.189 12.7214C21.0193 12.9313 20.803 13.0989 20.5573 13.2106Z" fill="white"/>
<path opacity="0.25" d="M2.37316 0.457921L20.557 10.7894C20.8028 10.9012 21.0192 11.0688 21.1889 11.2788C21.3586 11.4889 21.4769 11.7357 21.5345 11.9996C21.5069 11.7082 21.4017 11.4296 21.2298 11.1928C21.0578 10.9559 20.8255 10.7696 20.557 10.6532L2.37316 0.321691C1.06997 -0.418765 0.00390625 0.196276 0.00390625 1.68894V1.82517C0.00390625 0.3326 1.06997 -0.282441 2.37316 0.457921Z" fill="#113255"/>
<defs>
<linearGradient id="paint0_linear_4642_15314" x1="11.0316" y1="1.47178" x2="-4.61713" y2="17.1205" gradientUnits="userSpaceOnUse">
<stop stop-color="#00A0FF"/>
<stop offset="0.00657" stop-color="#00A1FF"/>
<stop offset="0.2601" stop-color="#00BEFF"/>
<stop offset="0.5122" stop-color="#00D2FF"/>
<stop offset="0.7604" stop-color="#00DFFF"/>
<stop offset="1" stop-color="#00E3FF"/>
</linearGradient>
<linearGradient id="paint1_linear_4642_15314" x1="22.2539" y1="12.0008" x2="-0.308453" y2="12.0008" gradientUnits="userSpaceOnUse">
<stop stop-color="#FFE000"/>
<stop offset="0.4087" stop-color="#FFBD00"/>
<stop offset="0.7754" stop-color="#FFA500"/>
<stop offset="1" stop-color="#FF9C00"/>
</linearGradient>
<linearGradient id="paint2_linear_4642_15314" x1="13.8549" y1="14.1401" x2="-7.36598" y2="35.3609" gradientUnits="userSpaceOnUse">
<stop stop-color="#FF3A44"/>
<stop offset="1" stop-color="#C31162"/>
</linearGradient>
<linearGradient id="paint3_linear_4642_15314" x1="-2.49053" y1="-6.48527" x2="6.98547" y2="2.99074" gradientUnits="userSpaceOnUse">
<stop stop-color="#32A071"/>
<stop offset="0.0685" stop-color="#2DA771"/>
<stop offset="0.4762" stop-color="#15CF74"/>
<stop offset="0.8009" stop-color="#06E775"/>
<stop offset="1" stop-color="#00F076"/>
</linearGradient>
</defs>
</svg>
