<svg width="20" height="24" viewBox="0 0 20 24" fill="none" xmlns="http://www.w3.org/2000/svg">
<path d="M16.6199 12.763C16.6317 11.8431 16.8761 10.9411 17.3302 10.141C17.7843 9.34093 18.4334 8.6687 19.2171 8.18688C18.7192 7.47583 18.0624 6.89066 17.2988 6.47785C16.5353 6.06504 15.6859 5.83597 14.8183 5.80883C12.9676 5.61457 11.1734 6.91628 10.2303 6.91628C9.26891 6.91628 7.81685 5.82811 6.25322 5.86029C5.24182 5.89296 4.25613 6.18707 3.3922 6.71395C2.52826 7.24084 1.81554 7.98253 1.32347 8.86676C-0.808054 12.5572 0.78187 17.9808 2.82369 20.9639C3.84526 22.4246 5.03918 24.0562 6.60139 23.9984C8.13012 23.9349 8.70107 23.0235 10.5464 23.0235C12.3745 23.0235 12.9102 23.9984 14.5041 23.9616C16.1445 23.9349 17.178 22.4944 18.1638 21.0198C18.8978 19.979 19.4626 18.8287 19.8373 17.6115C18.8842 17.2084 18.071 16.5337 17.4988 15.6715C16.9267 14.8093 16.621 13.7978 16.6199 12.763Z" fill="white"/>
<path d="M13.6082 3.84712C14.5026 2.77342 14.9432 1.39335 14.8365 0C13.4701 0.14352 12.2078 0.796599 11.3013 1.82911C10.8581 2.33352 10.5187 2.92033 10.3024 3.55601C10.0861 4.19169 9.99721 4.86376 10.0408 5.53381C10.7243 5.54084 11.4005 5.3927 12.0184 5.10054C12.6363 4.80838 13.1799 4.37982 13.6082 3.84712Z" fill="white"/>
</svg>
