<svg width="24" height="25" viewBox="0 0 24 25" fill="none" xmlns="http://www.w3.org/2000/svg">
<path d="M7.65055 21.8571C7.62055 21.8571 7.58055 21.8771 7.55055 21.8771C5.61055 20.9171 4.03055 19.3271 3.06055 17.3871C3.06055 17.3571 3.08055 17.3171 3.08055 17.2871C4.30055 17.6471 5.56055 17.9171 6.81055 18.1271C7.03055 19.3871 7.29055 20.6371 7.65055 21.8571Z" fill="#FAA017"/>
<path d="M20.9391 17.3971C19.9491 19.3871 18.2991 20.9971 16.2891 21.9671C16.6691 20.6971 16.9891 19.4171 17.1991 18.1271C18.4591 17.9171 19.6991 17.6471 20.9191 17.2871C20.9091 17.3271 20.9391 17.3671 20.9391 17.3971Z" fill="#FAA017"/>
<path d="M21.0191 8.65773C19.7591 8.27773 18.4891 7.96773 17.1991 7.74773C16.9891 6.45773 16.6791 5.17773 16.2891 3.92773C18.3591 4.91773 20.0291 6.58773 21.0191 8.65773Z" fill="#FAA017"/>
<path d="M7.65047 4.03684C7.29047 5.25684 7.03047 6.49684 6.82047 7.75684C5.53047 7.95684 4.25047 8.27684 2.98047 8.65684C3.95047 6.64684 5.56047 4.99684 7.55047 4.00684C7.58047 4.00684 7.62047 4.03684 7.65047 4.03684Z" fill="#FAA017"/>
<path d="M15.4898 7.53727C13.1698 7.27727 10.8298 7.27727 8.50977 7.53727C8.75977 6.16727 9.07977 4.79727 9.52977 3.47727C9.54977 3.39727 9.53977 3.33727 9.54977 3.25727C10.3398 3.06727 11.1498 2.94727 11.9998 2.94727C12.8398 2.94727 13.6598 3.06727 14.4398 3.25727C14.4498 3.33727 14.4498 3.39727 14.4698 3.47727C14.9198 4.80727 15.2398 6.16727 15.4898 7.53727Z" fill="#FAA017"/>
<path d="M6.59 16.437C5.21 16.187 3.85 15.867 2.53 15.417C2.45 15.397 2.39 15.407 2.31 15.397C2.12 14.607 2 13.797 2 12.947C2 12.107 2.12 11.287 2.31 10.507C2.39 10.497 2.45 10.497 2.53 10.477C3.86 10.037 5.21 9.70703 6.59 9.45703C6.34 11.777 6.34 14.117 6.59 16.437Z" fill="#FAA017"/>
<path d="M22.0002 12.947C22.0002 13.797 21.8802 14.607 21.6902 15.397C21.6102 15.407 21.5502 15.397 21.4702 15.417C20.1402 15.857 18.7802 16.187 17.4102 16.437C17.6702 14.117 17.6702 11.777 17.4102 9.45703C18.7802 9.70703 20.1502 10.027 21.4702 10.477C21.5502 10.497 21.6102 10.507 21.6902 10.507C21.8802 11.297 22.0002 12.107 22.0002 12.947Z" fill="#FAA017"/>
<path d="M15.4898 18.3574C15.2398 19.7374 14.9198 21.0974 14.4698 22.4174C14.4498 22.4974 14.4498 22.5574 14.4398 22.6374C13.6598 22.8274 12.8398 22.9474 11.9998 22.9474C11.1498 22.9474 10.3398 22.8274 9.54977 22.6374C9.53977 22.5574 9.54977 22.4974 9.52977 22.4174C9.08977 21.0874 8.75977 19.7374 8.50977 18.3574C9.66977 18.4874 10.8298 18.5774 11.9998 18.5774C13.1698 18.5774 14.3398 18.4874 15.4898 18.3574Z" fill="#FAA017"/>
<path d="M15.7633 16.7106C13.2622 17.0262 10.7378 17.0262 8.23667 16.7106C7.92111 14.2095 7.92111 11.685 8.23667 9.18393C10.7378 8.86838 13.2622 8.86838 15.7633 9.18393C16.0789 11.685 16.0789 14.2095 15.7633 16.7106Z" fill="#FAA017"/>
</svg>
