<svg width="24" height="24" viewBox="0 0 24 24" fill="none" xmlns="http://www.w3.org/2000/svg">
<circle cx="12" cy="12" r="12" fill="#DBF5F8"/>
<g clip-path="url(#clip0_6640_4389)">
<path d="M19.7455 7.83275C19.6559 7.41078 19.4383 7.02673 19.1223 6.73309C18.8186 6.44004 18.4264 6.25589 18.0069 6.20945C16.0106 6.03724 14.0068 5.96733 12.0033 5.99999C9.99879 5.97159 7.99409 6.04587 5.99713 6.22254C5.57909 6.26855 5.18838 6.45285 4.887 6.74618C4.57236 7.03598 4.35398 7.41516 4.26124 7.83275C3.90641 10.4135 3.90641 13.0307 4.26124 15.6115C4.34979 16.0338 4.56757 16.4182 4.88438 16.7112C5.18806 17.0042 5.58029 17.1884 5.99975 17.2348C7.9967 17.4116 10.0014 17.4859 12.006 17.4574C14.0088 17.4848 16.0118 17.4097 18.0069 17.2322C18.425 17.1862 18.8157 17.0019 19.1171 16.7085C19.4311 16.4142 19.6469 16.0302 19.735 15.6089C20.0989 13.4986 20.0701 10.2363 19.7455 7.83275ZM15.1714 12.2104L10.5895 15.0748C10.4012 15.1345 10.2 15.1409 10.0083 15.0931C9.91508 15.0483 9.83725 14.9769 9.7846 14.8879C9.73195 14.7989 9.70683 14.6963 9.7124 14.593V8.86433C9.705 8.76007 9.72897 8.65598 9.78123 8.56546C9.83349 8.47493 9.91165 8.40212 10.0056 8.35639C10.0941 8.3036 10.1959 8.27726 10.2989 8.28051C10.402 8.28376 10.5019 8.31645 10.5869 8.37472L15.1714 11.2364C15.2557 11.2849 15.3249 11.3559 15.3711 11.4414C15.4174 11.527 15.4389 11.6237 15.4332 11.7208C15.4399 11.8188 15.4188 11.9166 15.3725 12.0032C15.3263 12.0898 15.2566 12.1616 15.1714 12.2104Z" fill="#004680"/>
</g>
<defs>
<clipPath id="clip0_6640_4389">
<rect width="16" height="11.4574" fill="white" transform="translate(4 6)"/>
</clipPath>
</defs>
</svg>
